<svg width="7" height="36" viewBox="0 0 7 36" fill="none" xmlns="http://www.w3.org/2000/svg">
<path d="M2.8 10C2.8 10.77 2.17 11.4 1.4 11.4C0.63 11.4 0 10.77 0 10C0 9.23001 0.63 8.60001 1.4 8.60001C2.17 8.60001 2.8 9.23001 2.8 10ZM1.4 4.40001C0.63 4.40001 0 5.03001 0 5.80001C0 6.57001 0.63 7.20001 1.4 7.20001C2.17 7.20001 2.8 6.57001 2.8 5.80001C2.8 5.03001 2.17 4.40001 1.4 4.40001ZM1.4 0.200012C0.63 0.200012 0 0.830012 0 1.60001C0 2.37001 0.63 3.00001 1.4 3.00001C2.17 3.00001 2.8 2.37001 2.8 1.60001C2.8 0.830012 2.17 0.200012 1.4 0.200012ZM5.6 3.00001C6.37 3.00001 7 2.37001 7 1.60001C7 0.830012 6.37 0.200012 5.6 0.200012C4.83 0.200012 4.2 0.830012 4.2 1.60001C4.2 2.37001 4.83 3.00001 5.6 3.00001ZM5.6 4.40001C4.83 4.40001 4.2 5.03001 4.2 5.80001C4.2 6.57001 4.83 7.20001 5.6 7.20001C6.37 7.20001 7 6.57001 7 5.80001C7 5.03001 6.37 4.40001 5.6 4.40001ZM5.6 8.60001C4.83 8.60001 4.2 9.23001 4.2 10C4.2 10.77 4.83 11.4 5.6 11.4C6.37 11.4 7 10.77 7 10C7 9.23001 6.37 8.60001 5.6 8.60001Z" fill="#BDBDBD"/>
<path d="M2.8 22.2C2.8 22.97 2.17 23.6 1.4 23.6C0.63 23.6 0 22.97 0 22.2C0 21.43 0.63 20.8 1.4 20.8C2.17 20.8 2.8 21.43 2.8 22.2ZM1.4 16.6C0.63 16.6 0 17.23 0 18C0 18.77 0.63 19.4 1.4 19.4C2.17 19.4 2.8 18.77 2.8 18C2.8 17.23 2.17 16.6 1.4 16.6ZM1.4 12.4C0.63 12.4 0 13.03 0 13.8C0 14.57 0.63 15.2 1.4 15.2C2.17 15.2 2.8 14.57 2.8 13.8C2.8 13.03 2.17 12.4 1.4 12.4ZM5.6 15.2C6.37 15.2 7 14.57 7 13.8C7 13.03 6.37 12.4 5.6 12.4C4.83 12.4 4.2 13.03 4.2 13.8C4.2 14.57 4.83 15.2 5.6 15.2ZM5.6 16.6C4.83 16.6 4.2 17.23 4.2 18C4.2 18.77 4.83 19.4 5.6 19.4C6.37 19.4 7 18.77 7 18C7 17.23 6.37 16.6 5.6 16.6ZM5.6 20.8C4.83 20.8 4.2 21.43 4.2 22.2C4.2 22.97 4.83 23.6 5.6 23.6C6.37 23.6 7 22.97 7 22.2C7 21.43 6.37 20.8 5.6 20.8Z" fill="#BDBDBD"/>
<path d="M2.8 34.4C2.8 35.17 2.17 35.8 1.4 35.8C0.63 35.8 0 35.17 0 34.4C0 33.63 0.63 33 1.4 33C2.17 33 2.8 33.63 2.8 34.4ZM1.4 28.8C0.63 28.8 0 29.43 0 30.2C0 30.97 0.63 31.6 1.4 31.6C2.17 31.6 2.8 30.97 2.8 30.2C2.8 29.43 2.17 28.8 1.4 28.8ZM1.4 24.6C0.63 24.6 0 25.23 0 26C0 26.77 0.63 27.4 1.4 27.4C2.17 27.4 2.8 26.77 2.8 26C2.8 25.23 2.17 24.6 1.4 24.6ZM5.6 27.4C6.37 27.4 7 26.77 7 26C7 25.23 6.37 24.6 5.6 24.6C4.83 24.6 4.2 25.23 4.2 26C4.2 26.77 4.83 27.4 5.6 27.4ZM5.6 28.8C4.83 28.8 4.2 29.43 4.2 30.2C4.2 30.97 4.83 31.6 5.6 31.6C6.37 31.6 7 30.97 7 30.2C7 29.43 6.37 28.8 5.6 28.8ZM5.6 33C4.83 33 4.2 33.63 4.2 34.4C4.2 35.17 4.83 35.8 5.6 35.8C6.37 35.8 7 35.17 7 34.4C7 33.63 6.37 33 5.6 33Z" fill="#BDBDBD"/>
</svg>
